# xmcd CD database file
#
# Track frame offsets:
#	150
#	21892
#	44572
#	66065
#	86635
#	108045
#	129605
#	150585
#
# Disc length: 2295 seconds
#
# Revision: 0
# Processed by: cddbd v1.5.2PL0 Copyright (c) Steve Scherf et al.
# Submitted via: CDex 1.70beta2
#
DISCID=6008f508
DTITLE=Mario Ortiz - Dejenme Soñar
DYEAR=1986
DGENRE=Salsa
TTITLE0=Ensillala
TTITLE1=Ella
TTITLE2=Cantar Y Llorar
TTITLE3=Tu Forma De Querer
TTITLE4=De Loco Un Poco
TTITLE5=Dejenme Soñar
TTITLE6=Nadie Como Tu
TTITLE7=El Fieston
EXTD=YEAR: 1986
EXTT0=
EXTT1=
EXTT2=
EXTT3=
EXTT4=
EXTT5=
EXTT6=
EXTT7=
PLAYORDER=
